<svg xmlns="http://www.w3.org/2000/svg" viewBox="0 0 1400 860" role="img" aria-label="BirdPacks packaging products">
  <defs>
    <linearGradient id="paper" x1="0" y1="0" x2="1" y2="1">
      <stop offset="0" stop-color="#ffe8c8" />
      <stop offset="1" stop-color="#c68442" />
    </linearGradient>
    <linearGradient id="orange" x1="0" y1="0" x2="1" y2="1">
      <stop offset="0" stop-color="#ffb14f" />
      <stop offset="1" stop-color="#ff4d00" />
    </linearGradient>
    <linearGradient id="teal" x1="0" y1="0" x2="1" y2="1">
      <stop offset="0" stop-color="#83d9df" />
      <stop offset="1" stop-color="#0d8796" />
    </linearGradient>
    <filter id="softShadow" x="-20%" y="-20%" width="140%" height="150%">
      <feDropShadow dx="0" dy="24" stdDeviation="24" flood-color="#5a2500" flood-opacity="0.2" />
    </filter>
  </defs>
  <rect width="1400" height="860" rx="64" fill="#fff2e4" />
  <path d="M25 690C170 580 319 596 464 647c183 65 390 131 583 55 155-61 231-185 330-214v372H25Z" fill="#ffe1bd" opacity="0.6" />
  <circle cx="1115" cy="175" r="170" fill="#ff8b31" opacity="0.1" />
  <circle cx="355" cy="215" r="130" fill="#1b9aaa" opacity="0.1" />

  <g filter="url(#softShadow)">
    <g transform="translate(720 220)">
      <path d="M52 0h340l56 66v294H0V66Z" fill="url(#paper)" />
      <path d="M52 0h340l56 66H0Z" fill="#f9c17a" />
      <path d="M392 0v66h56Z" fill="#b96f2e" />
      <rect x="66" y="118" width="270" height="134" rx="18" fill="#fff4e5" opacity="0.88" />
      <text x="201" y="177" text-anchor="middle" font-family="Arial, Helvetica, sans-serif" font-size="44" font-weight="900" fill="#ff5a0a">BirdPacks</text>
      <text x="201" y="213" text-anchor="middle" font-family="Arial, Helvetica, sans-serif" font-size="20" font-weight="800" letter-spacing="6" fill="#1b5866">PACKAGING</text>
      <path d="M0 66h448" stroke="#9a5d27" stroke-width="5" opacity="0.35" />
    </g>

    <g transform="translate(390 420)">
      <path d="M0 0h355v210H0Z" fill="url(#orange)" />
      <path d="M0 0l58-52h352L355 0Z" fill="#ffb35e" />
      <path d="M355 0l55-52v210l-55 52Z" fill="#ce3e00" />
      <rect x="93" y="63" width="170" height="74" rx="18" fill="#fff7ed" opacity="0.84" />
      <text x="178" y="110" text-anchor="middle" font-family="Arial, Helvetica, sans-serif" font-size="34" font-weight="900" fill="#2d150d">BP</text>
      <text x="178" y="137" text-anchor="middle" font-family="Arial, Helvetica, sans-serif" font-size="16" font-weight="800" fill="#1b5866">BirdPacks</text>
    </g>

    <g transform="translate(190 230)">
      <path d="M48 90h225l35 348H12Z" fill="#f2b96e" />
      <path d="M48 90h225l-14-55H62Z" fill="#ffda9e" />
      <path d="M95 90C97 23 227 20 229 90" fill="none" stroke="#8b542a" stroke-width="14" stroke-linecap="round" />
      <rect x="70" y="194" width="180" height="92" rx="20" fill="#fff7ed" opacity="0.85" />
      <text x="160" y="251" text-anchor="middle" font-family="Arial, Helvetica, sans-serif" font-size="34" font-weight="900" fill="#ff5a0a">BirdPacks</text>
    </g>

    <g transform="translate(980 490)">
      <path d="M0 0h235l44 45v188H0Z" fill="url(#teal)" />
      <path d="M235 0v45h44Z" fill="#096878" />
      <rect x="42" y="78" width="160" height="74" rx="18" fill="#ffffff" opacity="0.82" />
      <text x="122" y="124" text-anchor="middle" font-family="Arial, Helvetica, sans-serif" font-size="32" font-weight="900" fill="#ff5a0a">BP</text>
    </g>

    <g transform="translate(590 135)">
      <path d="M34 78h198l25 263H10Z" fill="#ffffff" />
      <path d="M34 78h198l-10-45H46Z" fill="#111827" />
      <path d="M48 180h166" stroke="#ff9a3b" stroke-width="13" stroke-linecap="round" opacity="0.65" />
      <path d="M52 218h155" stroke="#1b9aaa" stroke-width="11" stroke-linecap="round" opacity="0.55" />
      <text x="133" y="150" text-anchor="middle" font-family="Arial, Helvetica, sans-serif" font-size="31" font-weight="900" fill="#2d150d">BirdPacks</text>
    </g>
  </g>
</svg>
