<svg xmlns="http://www.w3.org/2000/svg" viewBox="0 0 128 128" role="img" aria-label="BirdPacks BP logo">
  <defs>
    <linearGradient id="bp-mark" x1="18" y1="108" x2="112" y2="18" gradientUnits="userSpaceOnUse">
      <stop offset="0" stop-color="#1b9aaa" />
      <stop offset="0.45" stop-color="#ff7a1a" />
      <stop offset="1" stop-color="#ff4d00" />
    </linearGradient>
    <linearGradient id="bp-ring" x1="22" y1="114" x2="106" y2="14" gradientUnits="userSpaceOnUse">
      <stop offset="0" stop-color="#1b9aaa" stop-opacity="0.75" />
      <stop offset="1" stop-color="#ff5a0a" stop-opacity="0.9" />
    </linearGradient>
  </defs>
  <path
    d="M23.5 92.5c-11.3-22-5.5-51.2 13.4-66.2C55.4 11.6 84.5 14 101 31.5c17.3 18.4 15.6 50.3-3.6 70.1-18.9 19.5-58.8 20.4-73.9-9.1Z"
    fill="none"
    stroke="url(#bp-ring)"
    stroke-width="7"
    stroke-linecap="round"
  />
  <path
    d="M37 94V33h23.2c12.5 0 20.7 7.1 20.7 17.6 0 6.9-3.6 12.4-9.3 15.2 8.6 2.7 13.9 9.2 13.9 18 0 12.7-10.3 20.2-25.1 20.2H37Z"
    fill="none"
    stroke="url(#bp-mark)"
    stroke-width="9"
    stroke-linejoin="round"
  />
  <path
    d="M56.5 59.8h3.2c7.3 0 11.6-3.4 11.6-9.1 0-5.5-4.2-8.9-11.2-8.9h-3.6v18Zm0 25.8h5.6c8.1 0 12.7-3.9 12.7-10.1 0-6.3-4.7-10-12.7-10h-5.6v20.1Z"
    fill="none"
    stroke="#2d150d"
    stroke-width="5.5"
    stroke-linejoin="round"
  />
  <path
    d="M91 94V34h12.5c13.2 0 21.5 7.6 21.5 19.5S116.7 73 103.5 73H99v21h-8Z"
    fill="none"
    stroke="url(#bp-mark)"
    stroke-width="8"
    stroke-linejoin="round"
    transform="translate(-23 0)"
  />
  <path
    d="M74 63.8h4.3c7.2 0 11.4-3.8 11.4-10.2S85.5 43.5 78.3 43.5H74v20.3Z"
    fill="none"
    stroke="#2d150d"
    stroke-width="5.2"
    stroke-linejoin="round"
    transform="translate(1 0)"
  />
</svg>
